<?xml version="1.0" encoding="UTF-8" standalone="no"?>
<!DOCTYPE svg PUBLIC "-//W3C//DTD SVG 1.1//EN" "http://www.w3.org/Graphics/SVG/1.1/DTD/svg11.dtd">
<svg width="100%" height="100%" viewBox="0 0 512 512" version="1.1" xmlns="http://www.w3.org/2000/svg" xmlns:xlink="http://www.w3.org/1999/xlink" xml:space="preserve" xmlns:serif="http://www.serif.com/" style="fill-rule:evenodd;clip-rule:evenodd;stroke-linejoin:round;stroke-miterlimit:2;">
    <path d="M512,102.4C512,45.884 466.116,0 409.6,0L102.4,0C45.884,0 0,45.884 0,102.4L0,409.6C0,466.116 45.884,512 102.4,512L409.6,512C466.116,512 512,466.116 512,409.6L512,102.4Z" style="fill:rgb(255,235,59);"/>
    <g transform="matrix(1.37927,0,0,1.37927,-277.507,73.0094)">
        <path d="M458.636,96.672C458.637,97.051 458.767,97.402 458.719,97.788L440.719,241.788C440.148,246.341 436.272,249.674 431.798,249.674C431.429,249.674 431.051,249.648 430.673,249.604C425.742,248.989 422.247,244.489 422.86,239.558L440.719,96.683L395.804,96.683L395.804,240.683C395.804,245.657 391.779,249.683 386.804,249.683C381.83,249.683 377.804,245.657 377.804,240.683L377.804,96.683L332.861,96.683L350.72,239.558C351.335,244.489 347.837,248.991 342.907,249.604C342.529,249.648 342.151,249.674 341.782,249.674C337.308,249.674 333.434,246.343 332.861,241.788L314.861,97.788C314.812,97.401 314.943,97.051 314.944,96.672L260.804,96.672L302.379,263.06C304.381,271.047 311.525,276.672 319.811,276.672L453.854,276.667C462.112,276.665 469.239,271.071 471.241,263.054L512.804,96.672L458.636,96.672L458.636,96.672ZM492.329,66.803C488.392,60.121 481.428,55.761 473.694,55.131C477.35,48.522 477.28,40.574 473.553,34.038C468.42,25.038 457.803,20.746 447.886,22.715C447.746,13.36 441.417,4.715 431.574,1.621C424.121,-0.77 415.891,0.566 409.563,5.277C409.563,4.855 409.422,4.504 409.211,4.152C405.198,-7.76 391.698,-14.018 379.211,-10.22C371.898,-7.97 366.104,-2.204 363.798,5.108C357.048,0.535 349.398,-0.73 342.029,1.66C332.186,4.684 325.931,13.332 325.717,22.686C315.806,20.718 305.186,25.007 300.05,34.01C295.736,40.478 296.169,48.578 299.898,55.103C291.798,55.835 285.059,59.941 281.262,66.803C279.086,70.572 278.591,74.678 278.872,78.166L494.759,78.166C495.029,74.678 494.523,70.572 492.329,66.803L492.329,66.803Z" style="fill:rgb(33,33,33);fill-rule:nonzero;"/>
    </g>
</svg>
